<?xml version="1.0" encoding="UTF-8" standalone="no"?>
<svg
   xmlns:dc="http://purl.org/dc/elements/1.1/"
   xmlns:cc="http://creativecommons.org/ns#"
   xmlns:rdf="http://www.w3.org/1999/02/22-rdf-syntax-ns#"
   xmlns:svg="http://www.w3.org/2000/svg"
   xmlns="http://www.w3.org/2000/svg"
   viewBox="0 0 400.16934 259.81067"
   height="259.81067"
   width="400.16934"
   xml:space="preserve"
   id="svg2"
   version="1.1"><metadata
     id="metadata8"><rdf:RDF><cc:Work
         rdf:about=""><dc:format>image/svg+xml</dc:format><dc:type
           rdf:resource="http://purl.org/dc/dcmitype/StillImage" /></cc:Work></rdf:RDF></metadata><defs
     id="defs6"><clipPath
       id="clipPath18"
       clipPathUnits="userSpaceOnUse"><path
         id="path16"
         d="M 0,194.858 H 300.127 V 0 H 0 Z" /></clipPath></defs><g
     transform="matrix(1.3333333,0,0,-1.3333333,0,259.81067)"
     id="g10"><g
       id="g12"><g
         clip-path="url(#clipPath18)"
         id="g14"><g
           transform="translate(228.0277,110.3346)"
           id="g20"><path
             id="path22"
             style="fill:#83c669;fill-opacity:1;fill-rule:nonzero;stroke:none"
             d="m 0,0 h -2.625 c -0.613,0 -1.111,0.497 -1.111,1.111 v 37.738 c 0,0.613 0.498,1.111 1.111,1.111 H 0 c 0.614,0 1.111,-0.498 1.111,-1.111 V 1.111 C 1.111,0.497 0.614,0 0,0" /></g><g
           transform="translate(218.9171,110.3346)"
           id="g24"><path
             id="path26"
             style="fill:#49b6cf;fill-opacity:1;fill-rule:nonzero;stroke:none"
             d="m 0,0 h -2.625 c -0.613,0 -1.111,0.497 -1.111,1.111 v 37.738 c 0,0.613 0.498,1.111 1.111,1.111 H 0 c 0.614,0 1.111,-0.498 1.111,-1.111 V 1.111 C 1.111,0.497 0.614,0 0,0" /></g><g
           transform="translate(209.8065,110.3346)"
           id="g28"><path
             id="path30"
             style="fill:#83c669;fill-opacity:1;fill-rule:nonzero;stroke:none"
             d="m 0,0 h -2.625 c -0.613,0 -1.111,0.497 -1.111,1.111 v 37.738 c 0,0.613 0.498,1.111 1.111,1.111 H 0 c 0.614,0 1.111,-0.498 1.111,-1.111 V 1.111 C 1.111,0.497 0.614,0 0,0" /></g><g
           transform="translate(200.6959,110.3346)"
           id="g32"><path
             id="path34"
             style="fill:#49b6cf;fill-opacity:1;fill-rule:nonzero;stroke:none"
             d="m 0,0 h -2.625 c -0.613,0 -1.111,0.497 -1.111,1.111 v 37.738 c 0,0.613 0.498,1.111 1.111,1.111 H 0 c 0.614,0 1.111,-0.498 1.111,-1.111 V 1.111 C 1.111,0.497 0.614,0 0,0" /></g><g
           transform="translate(191.5853,110.3346)"
           id="g36"><path
             id="path38"
             style="fill:#83c669;fill-opacity:1;fill-rule:nonzero;stroke:none"
             d="m 0,0 h -2.625 c -0.613,0 -1.111,0.497 -1.111,1.111 v 37.738 c 0,0.613 0.498,1.111 1.111,1.111 H 0 c 0.614,0 1.111,-0.498 1.111,-1.111 V 1.111 C 1.111,0.497 0.614,0 0,0" /></g><g
           transform="translate(182.4747,110.3346)"
           id="g40"><path
             id="path42"
             style="fill:#49b6cf;fill-opacity:1;fill-rule:nonzero;stroke:none"
             d="m 0,0 h -2.625 c -0.613,0 -1.111,0.497 -1.111,1.111 v 37.738 c 0,0.613 0.498,1.111 1.111,1.111 H 0 c 0.614,0 1.111,-0.498 1.111,-1.111 V 1.111 C 1.111,0.497 0.614,0 0,0" /></g><g
           transform="translate(173.3641,110.3346)"
           id="g44"><path
             id="path46"
             style="fill:#83c669;fill-opacity:1;fill-rule:nonzero;stroke:none"
             d="m 0,0 h -2.625 c -0.613,0 -1.111,0.497 -1.111,1.111 v 37.738 c 0,0.613 0.498,1.111 1.111,1.111 H 0 c 0.614,0 1.111,-0.498 1.111,-1.111 V 1.111 C 1.111,0.497 0.614,0 0,0" /></g><g
           transform="translate(164.2535,108.0581)"
           id="g48"><path
             id="path50"
             style="fill:#49b6cf;fill-opacity:1;fill-rule:nonzero;stroke:none"
             d="m 0,0 h -2.625 c -0.613,0 -1.111,0.497 -1.111,1.111 v 37.738 c 0,0.613 0.498,1.111 1.111,1.111 H 0 c 0.614,0 1.111,-0.498 1.111,-1.111 V 1.111 C 1.111,0.497 0.614,0 0,0" /></g><g
           transform="translate(155.1429,114.2553)"
           id="g52"><path
             id="path54"
             style="fill:#83c669;fill-opacity:1;fill-rule:nonzero;stroke:none"
             d="m 0,0 h -2.625 c -0.613,0 -1.111,0.497 -1.111,1.111 v 37.738 c 0,0.613 0.498,1.111 1.111,1.111 H 0 c 0.614,0 1.111,-0.498 1.111,-1.111 V 1.111 C 1.111,0.497 0.614,0 0,0" /></g><g
           transform="translate(146.0323,104.6433)"
           id="g56"><path
             id="path58"
             style="fill:#49b6cf;fill-opacity:1;fill-rule:nonzero;stroke:none"
             d="m 0,0 h -2.625 c -0.613,0 -1.111,0.497 -1.111,1.111 v 37.738 c 0,0.613 0.498,1.111 1.111,1.111 H 0 c 0.614,0 1.111,-0.498 1.111,-1.111 V 1.111 C 1.111,0.497 0.614,0 0,0" /></g><g
           transform="translate(136.9217,121.2113)"
           id="g60"><path
             id="path62"
             style="fill:#83c669;fill-opacity:1;fill-rule:nonzero;stroke:none"
             d="m 0,0 h -2.625 c -0.613,0 -1.111,0.497 -1.111,1.111 v 37.738 c 0,0.613 0.498,1.111 1.111,1.111 H 0 c 0.614,0 1.111,-0.498 1.111,-1.111 V 1.111 C 1.111,0.497 0.614,0 0,0" /></g><g
           transform="translate(127.8111,99.5844)"
           id="g64"><path
             id="path66"
             style="fill:#49b6cf;fill-opacity:1;fill-rule:nonzero;stroke:none"
             d="m 0,0 h -2.625 c -0.613,0 -1.111,0.497 -1.111,1.111 v 37.738 c 0,0.613 0.498,1.111 1.111,1.111 H 0 c 0.614,0 1.111,-0.498 1.111,-1.111 V 1.111 C 1.111,0.497 0.614,0 0,0" /></g><g
           transform="translate(118.7005,128.0381)"
           id="g68"><path
             id="path70"
             style="fill:#83c669;fill-opacity:1;fill-rule:nonzero;stroke:none"
             d="m 0,0 h -2.625 c -0.613,0 -1.111,0.497 -1.111,1.111 v 37.738 c 0,0.613 0.498,1.111 1.111,1.111 H 0 c 0.614,0 1.111,-0.498 1.111,-1.111 V 1.111 C 1.111,0.497 0.614,0 0,0" /></g><g
           transform="translate(109.5899,91.2372)"
           id="g72"><path
             id="path74"
             style="fill:#49b6cf;fill-opacity:1;fill-rule:nonzero;stroke:none"
             d="m 0,0 h -2.625 c -0.613,0 -1.111,0.497 -1.111,1.111 v 37.738 c 0,0.613 0.498,1.111 1.111,1.111 H 0 c 0.614,0 1.111,-0.498 1.111,-1.111 V 1.111 C 1.111,0.497 0.614,0 0,0" /></g><g
           transform="translate(100.4793,138.0321)"
           id="g76"><path
             id="path78"
             style="fill:#83c669;fill-opacity:1;fill-rule:nonzero;stroke:none"
             d="m 0,0 h -2.625 c -0.613,0 -1.111,0.497 -1.111,1.111 v 37.738 c 0,0.613 0.498,1.111 1.111,1.111 H 0 c 0.614,0 1.111,-0.498 1.111,-1.111 V 1.111 C 1.111,0.497 0.614,0 0,0" /></g><g
           transform="translate(91.3687,81.2513)"
           id="g80"><path
             id="path82"
             style="fill:#49b6cf;fill-opacity:1;fill-rule:nonzero;stroke:none"
             d="m 0,0 h -2.625 c -0.613,0 -1.111,0.497 -1.111,1.111 v 37.738 c 0,0.613 0.498,1.111 1.111,1.111 H 0 c 0.614,0 1.111,-0.498 1.111,-1.111 V 1.111 C 1.111,0.497 0.614,0 0,0" /></g><g
           transform="translate(82.258,153.5883)"
           id="g84"><path
             id="path86"
             style="fill:#83c669;fill-opacity:1;fill-rule:nonzero;stroke:none"
             d="m 0,0 h -2.625 c -0.613,0 -1.111,0.497 -1.111,1.111 v 37.738 c 0,0.613 0.498,1.111 1.111,1.111 H 0 c 0.614,0 1.111,-0.498 1.111,-1.111 V 1.111 C 1.111,0.497 0.614,0 0,0" /></g><g
           transform="translate(73.1474,65.9427)"
           id="g88"><path
             id="path90"
             style="fill:#49b6cf;fill-opacity:1;fill-rule:nonzero;stroke:none"
             d="m 0,0 h -2.625 c -0.613,0 -1.111,0.497 -1.111,1.111 v 37.738 c 0,0.613 0.498,1.111 1.111,1.111 H 0 c 0.614,0 1.111,-0.498 1.111,-1.111 V 1.111 C 1.111,0.497 0.614,0 0,0" /></g><text
           id="text94"
           style="font-variant:normal;font-weight:500;font-stretch:normal;font-size:58.05110168px;font-family:'Avenir Medium';-inkscape-font-specification:Avenir-Medium;writing-mode:lr-tb;fill:#42b6cf;fill-opacity:1;fill-rule:nonzero;stroke:none"
           transform="matrix(1,0,0,-1,-0.9604,2.4033)"><tspan
             id="tspan92"
             y="0"
             x="0 29.373857 67.339279 96.713135 109.94878 147.9142 179.494 208.86786 227.44421 254.67018 273.24652">SUS Contata</tspan></text>
</g></g></g></svg>